<svg width="180" height="180" viewBox="0 0 180 180" fill="none" xmlns="http://www.w3.org/2000/svg">
  <!-- Background: warm dark -->
  <rect width="180" height="180" rx="36" fill="#1a1512"/>

  <!-- Y — elegant serif style -->
  <path
    d="M30 42 L62 95 L62 138 L72 138 L72 95 L104 42 L92 42 L67 84 L42 42 Z"
    fill="#c4974e"
  />

  <!-- C — open arc -->
  <path
    d="M152 65 C144 55 132 49 118 49 C96 49 78 67 78 90 C78 113 96 131 118 131 C132 131 144 125 152 115 L142 108 C136 116 128 121 118 121 C102 121 89 107 89 90 C89 73 102 59 118 59 C128 59 136 64 142 72 Z"
    fill="#c4974e"
  />
</svg>
